<svg xmlns="http://www.w3.org/2000/svg" viewBox="0 0 512 512">
  <rect width="512" height="512" rx="112" fill="#087f5b"/>
  <path fill="#ffffff" d="M142 138c0-33 27-60 60-60h108c33 0 60 27 60 60v178c0 23-13 43-32 53v38c0 12-10 22-22 22s-22-10-22-22v-30h-76v30c0 12-10 22-22 22s-22-10-22-22v-38c-19-10-32-30-32-53V138zm60-20c-11 0-20 9-20 20v42h148v-42c0-11-9-20-20-20H202zm-20 102v86c0 17 13 30 30 30h88c17 0 30-13 30-30v-86H182zm36 54a24 24 0 1 1 0 48 24 24 0 0 1 0-48zm76 24a24 24 0 1 1 48 0 24 24 0 0 1-48 0z"/>
  <path fill="#dff7ed" d="M132 92h248a18 18 0 0 1 0 36H132a18 18 0 0 1 0-36z"/>
</svg>
